<?xml version="1.0" encoding="utf-8"?>
<!-- Generator: Adobe Illustrator 16.0.4, SVG Export Plug-In . SVG Version: 6.00 Build 0)  -->
<!DOCTYPE svg PUBLIC "-//W3C//DTD SVG 1.1//EN" "http://www.w3.org/Graphics/SVG/1.1/DTD/svg11.dtd">
<svg version="1.1" id="Layer_1" xmlns="http://www.w3.org/2000/svg" xmlns:xlink="http://www.w3.org/1999/xlink" x="0px" y="0px"
	 width="45px" height="32px" viewBox="0 0 45 32" enable-background="new 0 0 45 32" xml:space="preserve">
<g transform="translate(-1056.000000, -11.000000)">
	<path id="Compose-button" fill="#529ECC" d="M1056,13.002c0-1.105,0.899-2.002,1.992-2.002h41.016c1.101,0,1.992,0.889,1.992,2.002
		v27.996c0,1.105-0.898,2.002-1.992,2.002h-41.016c-1.1,0-1.992-0.889-1.992-2.002V13.002z M1069.604,31.513h-0.001l-0.001,0.002
		l-1.602,6.47l6.47-1.602h0.001v-0.002l10.658-10.658l-4.867-4.867L1069.604,31.513z M1085.117,16l-3.203,3.203l4.868,4.868
		l3.203-3.205L1085.117,16z M1081.076,24.171l-8.126,8.127l-0.803-0.803l8.127-8.125L1081.076,24.171z"/>
</g>
</svg>
